<svg viewBox="0 0 48 48" xmlns="http://www.w3.org/2000/svg">
  <style>
    .tw{transform-box:fill-box;transform-origin:center;animation:tw 2s ease-in-out infinite}
    @keyframes tw{0%,100%{opacity:.25;transform:scale(.6)}50%{opacity:1;transform:scale(1.3)}}
  </style>
  <defs>
    <linearGradient id="ver" x1="0" y1="0" x2="1" y2="1">
      <stop offset="0" stop-color="#7FF2C2"/>
      <stop offset=".5" stop-color="#15E6A0"/>
      <stop offset="1" stop-color="#097E54"/>
    </linearGradient>
    <linearGradient id="gl" x1="0" y1="0" x2="1" y2="0">
      <stop offset="0" stop-color="#fff" stop-opacity="0"/>
      <stop offset=".5" stop-color="#fff" stop-opacity=".92"/>
      <stop offset="1" stop-color="#fff" stop-opacity="0"/>
    </linearGradient>
    <clipPath id="cl"><polygon points="24,3 44,24 24,45 4,24"/></clipPath>
  </defs>
  <polygon points="24,3 44,24 24,45 4,24" fill="url(#ver)" stroke="#c4ffe4" stroke-width="1.1"/>
  <polygon points="24,9 38,24 24,39 10,24" fill="none" stroke="#e2fff0" stroke-width=".8" opacity=".75"/>
  <polygon points="24,15 32,24 24,33 16,24" fill="#097E54" opacity=".5"/>
  <line x1="24" y1="3" x2="24" y2="45" stroke="#e2fff0" stroke-width=".6" opacity=".6"/>
  <line x1="4" y1="24" x2="44" y2="24" stroke="#e2fff0" stroke-width=".6" opacity=".6"/>
  <g clip-path="url(#cl)"><rect style="animation-delay:1.6s" x="13" y="-8" width="10" height="62" fill="url(#gl)"/></g>
  <path class="tw" style="animation-delay:.7s"  d="M33 12 l0.9 2.1 2.1 0.9 -2.1 0.9 -0.9 2.1 -0.9 -2.1 -2.1 -0.9 2.1 -0.9z" fill="#fff"/>
  <path class="tw" style="animation-delay:1.3s" d="M15 31 l0.6 1.4 1.4 0.6 -1.4 0.6 -0.6 1.4 -0.6 -1.4 -1.4 -0.6 1.4 -0.6z" fill="#fff"/>
</svg>
